<?xml version="1.0" encoding="UTF-8" standalone="no"?>
<!DOCTYPE svg PUBLIC "-//W3C//DTD SVG 1.1//EN" "http://www.w3.org/Graphics/SVG/1.1/DTD/svg11.dtd">
<svg xmlns="http://www.w3.org/2000/svg" version="1.1" viewBox="0 0 1000 1000">
<g stroke-width="2.00" fill="none" stroke-linecap="butt">
<path stroke="#285862" vector-effect="non-scaling-stroke" d="
  M 729.75 226.71
  Q 630.16 248.56 548.26 309.02
  Q 501.96 343.19 463.15 385.69
  A 0.85 0.85 28.1 0 1 462.32 385.94
  Q 430.40 377.84 399.25 384.25
  Q 362.34 391.85 335.12 419.13
  Q 319.92 434.36 306.56 451.22"
/>
<path stroke="#285862" vector-effect="non-scaling-stroke" d="
  M 883.71 499.00
  Q 817.99 568.00 730.56 606.07
  Q 671.42 631.82 607.71 643.80
  A 1.53 1.52 2.5 0 0 606.54 644.86
  Q 602.95 656.76 597.74 667.78
  Q 593.25 677.28 587.78 685.09
  Q 567.06 714.67 532.37 727.72
  Q 520.41 732.21 507.99 735.23
  Q 490.15 739.56 471.97 742.12
  Q 471.88 742.13 470.03 742.23
  Q 468.36 742.32 466.66 743.27"
/>
<path stroke="#285862" vector-effect="non-scaling-stroke" d="
  M 454.80 737.38
  Q 470.75 708.67 483.33 678.13
  Q 485.12 673.77 487.34 667.67
  Q 489.26 662.37 491.20 657.15
  Q 491.57 656.13 490.58 656.56
  Q 470.09 665.36 450.44 656.47
  Q 448.61 655.64 444.34 653.12
  Q 441.35 651.36 438.25 649.79
  A 0.36 0.36 -23.9 0 0 437.73 650.05
  Q 435.08 665.35 427.25 678.78
  Q 418.92 693.08 406.66 704.07"
/>
<path stroke="#285862" vector-effect="non-scaling-stroke" d="
  M 307.11 524.91
  Q 338.66 515.57 369.09 526.60
  A 0.69 0.69 -82.8 0 0 370.01 525.88
  Q 366.99 495.85 390.70 478.68
  Q 391.50 478.10 390.54 477.87
  Q 366.32 472.05 341.26 469.42
  Q 323.03 467.51 304.75 466.29"
/>
<path stroke="#285762" vector-effect="non-scaling-stroke" d="
  M 505.88 638.06
  Q 504.75 648.67 501.06 660.56
  Q 496.82 674.22 492.88 683.84
  Q 482.99 707.93 470.75 730.46
  Q 470.07 731.71 471.49 731.53
  Q 478.38 730.66 485.01 729.86
  Q 498.75 728.22 512.03 724.34
  Q 557.47 711.05 582.50 671.07
  Q 592.67 654.81 597.66 635.62
  A 1.65 1.63 -87.4 0 1 598.96 634.42
  Q 662.16 623.11 721.67 597.88
  Q 761.09 581.17 796.78 557.52
  Q 872.69 507.23 922.52 431.02
  Q 947.57 392.71 966.06 346.31
  Q 982.40 305.33 989.14 262.46
  A 1.43 1.43 -73.8 0 0 988.30 260.93
  Q 975.49 255.30 963.80 251.47
  Q 899.62 230.40 832.00 228.96
  Q 721.52 226.61 623.19 275.93
  Q 584.24 295.46 549.48 321.75
  Q 504.90 355.46 466.88 397.82
  A 1.46 1.46 29.4 0 1 465.37 398.24
  Q 443.96 391.75 423.25 392.37
  Q 391.72 393.33 364.93 409.68
  Q 347.24 420.47 333.49 435.98
  Q 324.83 445.75 317.27 455.47
  Q 316.53 456.43 317.74 456.50
  Q 348.64 458.32 379.03 464.08
  Q 397.37 467.56 414.45 475.07
  Q 415.37 475.47 414.54 476.04
  Q 407.71 480.66 400.77 485.28
  Q 391.83 491.23 388.77 494.96
  Q 383.76 501.08 381.92 509.23
  Q 379.48 520.02 381.00 531.00
  Q 381.98 538.05 383.50 545.02
  Q 383.83 546.50 382.55 545.68
  Q 362.88 532.99 339.99 531.75
  Q 330.11 531.22 320.10 533.05
  Q 303.88 536.02 288.19 544.44
  Q 267.73 555.41 254.31 571.06
  Q 241.30 586.24 229.44 607.94
  Q 225.22 615.65 206.12 648.65
  Q 197.05 664.31 184.75 680.75
  Q 159.43 714.59 123.59 735.65
  Q 123.19 735.89 123.17 736.11
  Q 123.15 736.46 124.22 736.15
  Q 137.59 732.37 150.99 728.75
  Q 153.42 728.10 151.57 729.81
  L 131.80 748.07
  Q 128.96 750.70 132.36 748.85
  Q 152.63 737.80 176.75 731.75
  Q 203.43 725.06 233.25 724.72
  Q 239.97 724.65 249.75 724.71
  Q 258.00 724.76 266.25 725.19
  Q 281.75 726.00 297.24 726.63
  Q 315.55 727.37 333.75 725.22
  Q 352.35 723.02 369.16 715.34
  Q 378.51 711.06 386.69 705.74
  Q 402.20 695.65 412.69 681.19
  Q 428.31 659.64 429.11 631.75
  Q 429.16 629.72 428.91 628.52
  Q 428.42 626.18 430.06 627.93
  Q 437.88 636.32 447.57 642.43
  Q 455.54 647.47 464.77 649.42
  Q 473.35 651.23 479.94 648.94
  Q 484.20 647.45 505.47 637.77
  Q 505.94 637.56 505.88 638.06"
/>
<path stroke="#0f3a3c" vector-effect="non-scaling-stroke" d="
  M 817.50 273.04
  Q 838.87 301.33 855.00 329.25
  Q 880.15 372.80 895.88 422.46
  Q 898.01 429.19 899.76 434.95
  Q 900.28 436.64 901.29 435.19
  Q 942.24 376.94 962.98 309.24
  Q 968.49 291.27 971.71 272.75"
/>
<path stroke="#184f53" vector-effect="non-scaling-stroke" d="
  M 971.71 272.75
  L 972.14 271.31
  A 0.64 0.51 19.1 0 0 971.72 270.64
  Q 925.24 253.43 876.00 247.46"
/>
<path stroke="#272726" vector-effect="non-scaling-stroke" d="
  M 876.00 247.46
  Q 872.55 246.59 869.00 246.79"
/>
<path stroke="#184f53" vector-effect="non-scaling-stroke" d="
  M 869.00 246.79
  Q 849.20 244.30 829.25 244.32
  Q 811.99 244.34 794.74 245.00
  Q 793.74 245.04 794.39 245.81
  L 817.50 273.04"
/>
<path stroke="#3a7078" vector-effect="non-scaling-stroke" d="
  M 869.00 246.79
  L 876.00 247.46"
/>
<path stroke="#22838e" vector-effect="non-scaling-stroke" d="
  M 971.71 272.75
  Q 968.08 277.86 966.44 280.69
  Q 956.41 297.95 940.12 308.50
  Q 931.16 314.31 922.07 316.93
  Q 907.12 321.23 891.23 317.82
  Q 876.85 314.74 864.56 307.94
  Q 840.04 294.35 819.81 273.94
  Q 818.54 272.65 817.50 273.04"
/>
<path stroke="#7a7b78" vector-effect="non-scaling-stroke" d="
  M 442.42 465.20
  Q 433.64 491.73 442.99 517.07
  A 0.89 0.89 -30.2 0 0 444.40 517.44
  Q 467.84 498.02 496.29 496.25"
/>
<path stroke="#828380" vector-effect="non-scaling-stroke" d="
  M 496.29 496.25
  Q 524.07 495.35 549.98 506.37
  A 0.65 0.65 16.3 0 1 550.37 507.08
  Q 547.71 521.96 542.76 535.50
  Q 529.45 571.93 493.71 586.75"
/>
<path stroke="#7a7b78" vector-effect="non-scaling-stroke" d="
  M 493.71 586.75
  L 483.80 589.81
  A 0.35 0.35 -27.0 0 0 483.62 590.35
  Q 488.65 597.13 495.00 602.71"
/>
<path stroke="#828380" vector-effect="non-scaling-stroke" d="
  M 495.00 602.71
  Q 507.23 613.81 523.00 618.79"
/>
<path stroke="#7a7b78" vector-effect="non-scaling-stroke" d="
  M 523.00 618.79
  Q 538.04 623.43 553.63 623.37
  Q 560.64 623.34 570.37 622.44
  Q 578.06 621.73 587.00 620.25
  Q 634.81 612.31 678.33 597.62
  Q 723.00 582.55 763.90 559.12
  Q 836.04 517.79 887.73 452.64
  A 1.43 1.41 -33.6 0 0 887.99 451.40
  Q 879.44 419.01 866.79 389.00"
/>
<path stroke="#828380" vector-effect="non-scaling-stroke" d="
  M 866.79 389.00
  Q 833.74 309.55 774.04 247.67
  A 1.04 1.01 -25.0 0 0 773.18 247.37
  Q 693.94 256.58 623.39 293.59
  Q 582.41 315.10 545.19 345.19
  Q 518.15 367.04 495.19 390.80
  Q 486.03 400.28 481.41 405.31
  Q 469.22 418.57 458.82 433.32
  Q 448.39 448.09 442.42 465.20"
/>
<path stroke="#f7f7f7" vector-effect="non-scaling-stroke" d="
  M 866.79 389.00
  Q 863.12 390.13 862.31 392.06
  Q 861.10 394.95 859.94 397.86
  Q 847.21 429.84 826.99 457.47
  Q 821.02 465.64 814.52 473.11
  Q 762.43 533.02 684.10 548.50
  Q 674.04 550.48 664.32 551.46
  Q 605.91 557.29 552.10 533.02
  Q 546.57 530.53 545.25 536.50
  Q 544.30 540.75 542.38 544.58
  Q 541.65 546.03 538.19 551.97
  Q 523.38 577.37 495.71 588.56
  A 1.01 0.85 -36.8 0 1 494.82 588.51
  Q 493.92 587.91 493.71 586.75"
/>
<path stroke="#f7f7f7" vector-effect="non-scaling-stroke" d="
  M 496.29 496.25
  Q 496.27 491.96 492.94 487.81
  Q 473.97 464.20 466.10 433.50
  A 3.61 3.61 7.6 0 0 464.37 431.24
  Q 462.89 430.41 462.71 432.27
  Q 462.67 432.66 462.45 432.97
  Q 452.95 447.03 447.19 460.69
  Q 446.57 462.15 442.42 465.20"
/>
<path stroke="#f7f7f7" vector-effect="non-scaling-stroke" d="
  M 523.00 618.79
  Q 523.90 617.47 523.30 616.13
  A 1.21 0.98 0.4 0 0 522.58 615.54
  Q 509.91 611.69 499.63 603.40
  Q 499.56 603.35 498.57 602.40
  Q 496.80 600.70 495.00 602.71"
/>
<path stroke="#0f3a3c" vector-effect="non-scaling-stroke" d="
  M 348.67 443.81
  Q 364.56 446.17 380.30 449.27
  Q 385.35 450.27 398.50 453.75
  Q 413.18 457.64 424.31 463.27
  A 0.46 0.45 25.3 0 0 424.94 463.05
  Q 433.50 443.22 446.19 425.79
  Q 449.51 421.23 451.04 418.96
  Q 453.37 415.48 455.66 411.98
  A 0.37 0.37 24.7 0 0 455.45 411.42
  Q 435.13 405.57 416.50 408.00
  Q 376.06 413.27 348.32 442.81
  Q 347.53 443.64 348.67 443.81"
/>
<path stroke="#41223b" vector-effect="non-scaling-stroke" d="
  M 405.21 500.63
  Q 397.58 505.74 396.25 515.00
  Q 394.79 525.16 397.37 536.93
  Q 401.43 555.51 410.07 572.45
  Q 411.04 574.35 411.89 572.40
  Q 414.22 567.12 415.66 561.28"
/>
<path stroke="#5d2d4c" vector-effect="non-scaling-stroke" d="
  M 415.66 561.28
  Q 422.02 545.48 431.55 532.28
  A 1.26 1.24 -40.0 0 0 431.67 531.02
  Q 422.64 512.16 420.49 491.31
  Q 420.44 490.81 420.03 491.11
  Q 413.25 496.08 405.21 500.63"
/>
<path stroke="#994986" vector-effect="non-scaling-stroke" d="
  M 415.66 561.28
  Q 393.56 534.07 405.21 500.63"
/>
<path stroke="#0f3a3c" vector-effect="non-scaling-stroke" d="
  M 442.96 543.75
  Q 432.60 557.65 427.41 574.56
  A 0.49 0.48 16.3 0 0 427.75 575.18
  Q 447.78 580.55 468.00 577.25
  Q 496.06 572.67 514.19 553.44
  Q 519.51 547.79 523.85 539.73"
/>
<path stroke="#285762" vector-effect="non-scaling-stroke" d="
  M 523.85 539.73
  Q 529.22 529.04 532.23 517.15
  A 0.53 0.53 15.1 0 0 531.86 516.51
  Q 519.50 512.83 507.50 512.45
  Q 466.53 511.17 442.96 543.75"
/>
<path stroke="#328a9d" vector-effect="non-scaling-stroke" d="
  M 523.85 539.73
  Q 484.54 562.21 442.96 543.75"
/>
<path stroke="#52294a" vector-effect="non-scaling-stroke" d="
  M 330.50 547.46
  Q 327.66 547.29 325.00 548.21"
/>
<path stroke="#5d2d4c" vector-effect="non-scaling-stroke" d="
  M 325.00 548.21
  Q 317.80 549.04 312.00 551.00
  Q 288.43 558.96 270.87 576.24
  Q 264.81 582.21 258.11 591.60
  Q 247.61 606.31 239.04 622.27
  Q 222.64 652.85 203.46 681.75"
/>
<path stroke="#52294a" vector-effect="non-scaling-stroke" d="
  M 203.46 681.75
  L 190.96 698.25"
/>
<path stroke="#41223b" vector-effect="non-scaling-stroke" d="
  M 190.96 698.25
  L 175.80 714.83
  Q 174.38 716.38 176.44 715.96
  Q 199.53 711.27 223.25 709.75
  Q 234.07 709.06 273.51 709.76"
/>
<path stroke="#272726" vector-effect="non-scaling-stroke" d="
  M 273.51 709.76
  Q 278.41 711.08 286.50 711.25
  Q 297.75 711.49 309.00 711.70
  Q 325.29 712.00 341.31 709.06
  Q 361.69 705.33 380.21 691.00"
/>
<path stroke="#41223b" vector-effect="non-scaling-stroke" d="
  M 380.21 691.00
  Q 400.64 675.71 409.42 652.38
  Q 412.19 645.02 413.12 636.70
  Q 414.03 628.64 413.77 620.50
  A 1.77 1.36 31.7 0 0 413.43 619.61
  Q 411.86 617.49 413.02 614.95
  A 1.70 1.35 -42.3 0 0 413.17 614.01
  Q 409.10 590.52 392.84 573.16
  Q 373.95 552.97 346.75 547.50
  Q 342.53 546.65 330.50 547.46"
/>
<path stroke="#634360" vector-effect="non-scaling-stroke" d="
  M 380.21 691.00
  Q 378.93 690.89 377.44 691.94
  Q 364.10 701.30 348.15 706.03
  Q 340.04 708.44 328.47 709.34
  Q 301.04 711.49 273.51 709.76"
/>
<path stroke="#8e4584" vector-effect="non-scaling-stroke" d="
  M 190.96 698.25
  Q 191.14 700.04 192.49 699.77
  Q 193.95 699.48 194.07 699.48
  Q 214.13 698.90 228.00 699.50
  Q 258.17 700.81 280.38 700.98
  Q 288.25 701.03 294.10 700.61
  Q 301.98 700.04 307.75 699.00
  Q 331.78 694.65 351.00 679.58
  Q 359.20 673.16 365.26 665.66
  Q 380.47 646.87 382.50 623.00
  Q 385.00 593.52 366.18 569.07
  Q 359.77 560.75 351.58 554.23
  Q 351.47 554.14 348.57 551.61
  Q 345.59 549.00 341.79 548.00
  Q 339.92 547.51 336.16 547.51
  Q 333.33 547.51 330.50 547.46"
/>
<path stroke="#aa5094" vector-effect="non-scaling-stroke" d="
  M 203.46 681.75
  Q 203.80 683.34 205.04 683.19
  Q 206.35 683.04 206.48 683.05
  Q 235.50 685.00 258.50 683.75
  Q 293.81 681.84 320.42 657.41
  Q 342.48 637.16 345.75 609.00
  Q 349.29 578.47 330.25 552.75
  Q 328.90 550.92 328.13 549.62
  Q 327.55 548.63 326.87 548.38
  Q 326.01 548.05 325.00 548.21"
/>
<path stroke="#272726" vector-effect="non-scaling-stroke" d="
  M 465.36 634.30
  Q 469.96 635.88 474.06 634.81
  Q 478.78 633.58 483.75 630.54"
/>
<path stroke="#41223b" vector-effect="non-scaling-stroke" d="
  M 483.75 630.54
  L 494.69 625.56
  A 0.68 0.67 51.5 0 0 494.81 624.41
  Q 483.38 615.40 474.23 604.64"
/>
<path stroke="#5d2d4c" vector-effect="non-scaling-stroke" d="
  M 474.23 604.64
  L 465.99 593.45
  A 0.99 0.88 -17.4 0 0 465.19 593.09
  L 456.00 593.54"
/>
<path stroke="#41223b" vector-effect="non-scaling-stroke" d="
  M 456.00 593.54
  Q 438.17 593.08 420.73 589.25
  Q 419.70 589.02 420.21 589.95
  Q 425.56 599.76 432.80 608.34
  Q 440.31 617.25 446.66 622.72
  Q 455.01 629.92 465.36 634.30"
/>
<path stroke="#994986" vector-effect="non-scaling-stroke" d="
  M 456.00 593.54
  Q 453.07 593.57 454.48 595.32
  Q 454.91 595.85 455.78 596.40
  Q 464.35 601.92 474.23 604.64"
/>
<path stroke="#634360" vector-effect="non-scaling-stroke" d="
  M 483.75 630.54
  Q 478.89 632.32 473.96 633.89
  Q 472.30 634.41 469.96 634.19
  Q 467.74 633.99 465.36 634.30"
/>
<path stroke="#0f3a3c" vector-effect="non-scaling-stroke" d="
  M 537.56 637.69
  Q 532.43 637.60 521.99 635.83
  A 0.50 0.49 -80.8 0 0 521.42 636.25
  Q 516.39 668.08 504.31 695.56
  Q 499.32 706.92 497.60 711.60
  Q 497.43 712.06 497.93 711.96
  Q 530.35 705.47 553.69 682.94
  Q 573.50 663.80 581.54 636.79
  A 0.37 0.36 8.0 0 0 581.18 636.32
  Q 571.07 636.59 561.00 637.50
  Q 555.63 637.98 537.56 637.69"
/>
<path stroke="#3ba0b4" vector-effect="non-scaling-stroke" d="
  M 880.7533 259.9124
  A 35.07 6.78 6.8 0 0 846.7328 249.0277
  A 35.07 6.78 6.8 0 0 811.1067 251.6076
  A 35.07 6.78 6.8 0 0 845.1272 262.4923
  A 35.07 6.78 6.8 0 0 880.7533 259.9124"
/>
<path stroke="#3ba0b4" vector-effect="non-scaling-stroke" d="
  M 890.1349 274.1693
  A 21.25 3.96 6.7 0 0 869.4920 267.7570
  A 21.25 3.96 6.7 0 0 847.9251 269.2107
  A 21.25 3.96 6.7 0 0 868.5680 275.6230
  A 21.25 3.96 6.7 0 0 890.1349 274.1693"
/>
<path stroke="#f7f7f7" vector-effect="non-scaling-stroke" d="
  M 634.79 494.00
  Q 634.23 496.00 633.42 496.34
  A 1.08 1.07 -35.3 0 0 633.11 498.12
  Q 656.18 519.23 685.01 520.97
  Q 694.87 521.56 704.91 519.72
  Q 729.89 515.12 747.75 497.36
  Q 754.89 490.26 760.12 481.71
  Q 770.43 464.87 772.00 445.25
  Q 774.61 412.77 753.76 387.45
  A 0.77 0.73 60.8 0 0 752.96 387.20
  Q 751.32 387.76 750.04 389.00"
/>
<path stroke="#828380" vector-effect="non-scaling-stroke" d="
  M 750.04 389.00
  Q 737.05 368.85 715.75 359.50
  Q 695.08 350.42 672.87 353.42
  Q 662.90 354.77 653.61 358.55
  Q 635.58 365.89 623.31 380.56
  Q 609.53 397.05 605.76 418.25
  Q 602.72 435.30 607.29 451.99
  Q 614.26 477.47 634.79 494.00"
/>
<path stroke="#7a7b78" vector-effect="non-scaling-stroke" d="
  M 750.04 389.00
  Q 761.53 407.29 762.50 426.75
  Q 764.14 459.61 743.04 483.67
  Q 736.44 491.19 728.12 496.90
  Q 698.90 516.92 663.00 508.00
  Q 648.52 504.40 634.79 494.00"
/>
<path stroke="#0f3a3c" vector-effect="non-scaling-stroke" d="
  M 623.89 452.55
  Q 636.85 485.84 670.81 493.69
  Q 688.43 497.76 706.50 490.46"
/>
<path stroke="#272726" vector-effect="non-scaling-stroke" d="
  M 706.50 490.46
  Q 721.33 484.55 731.31 473.06
  Q 750.28 451.23 746.25 421.75
  Q 744.07 405.80 733.11 393.23"
/>
<path stroke="#0f3a3c" vector-effect="non-scaling-stroke" d="
  M 733.11 393.23
  Q 732.20 390.63 730.16 389.10"
/>
<path stroke="#285762" vector-effect="non-scaling-stroke" d="
  M 730.16 389.10
  Q 710.18 368.65 682.97 368.79
  Q 672.64 368.84 663.33 372.04
  Q 648.51 377.12 637.56 388.81
  Q 622.50 404.90 620.75 427.25
  Q 619.78 439.55 623.89 452.55"
/>
<path stroke="#328a9d" vector-effect="non-scaling-stroke" d="
  M 730.16 389.10
  Q 725.12 416.66 705.44 434.69
  Q 673.25 464.16 628.75 455.50
  Q 626.85 455.13 623.89 452.55"
/>
<path stroke="#305a61" vector-effect="non-scaling-stroke" d="
  M 733.11 393.23
  Q 748.70 414.48 745.32 439.52
  Q 743.96 449.56 739.47 458.54
  Q 732.54 472.39 720.05 481.96
  Q 718.06 483.49 713.28 486.17
  Q 709.78 488.13 706.50 490.46"
/>
<path stroke="#328a9d" vector-effect="non-scaling-stroke" d="
  M 399.43 418.15
  Q 403.27 418.83 407.17 419.12
  Q 407.29 419.12 411.80 419.67
  Q 415.73 420.14 420.75 419.25
  Q 432.09 417.25 438.97 414.85
  A 1.58 1.14 -0.4 0 0 439.73 414.29
  Q 440.59 412.95 439.53 411.90
  Q 438.41 410.80 436.85 410.67
  Q 421.33 409.42 408.03 412.50
  Q 407.88 412.54 403.94 413.33
  Q 400.75 413.98 399.00 415.25
  Q 397.50 416.34 398.60 417.70
  A 1.53 1.14 -8.3 0 0 399.43 418.15"
/>
<path stroke="#328a9d" vector-effect="non-scaling-stroke" d="
  M 407.8862 423.1164
  A 15.34 2.79 -4.8 0 0 392.3665 421.6198
  A 15.34 2.79 -4.8 0 0 377.3138 425.6836
  A 15.34 2.79 -4.8 0 0 392.8335 427.1802
  A 15.34 2.79 -4.8 0 0 407.8862 423.1164"
/>
</g>
<path fill="#050800" d="
  M 729.75 226.71
  Q 630.16 248.56 548.26 309.02
  Q 501.96 343.19 463.15 385.69
  A 0.85 0.85 28.1 0 1 462.32 385.94
  Q 430.40 377.84 399.25 384.25
  Q 362.34 391.85 335.12 419.13
  Q 319.92 434.36 306.56 451.22
  Q 306.56 444.76 308.44 434.44
  Q 314.62 400.53 326.38 372.31
  Q 357.22 298.32 420.72 250.69
  Q 428.75 244.66 437.13 239.27
  Q 492.43 203.73 558.26 195.04
  Q 605.02 188.87 653.00 199.00
  Q 694.46 207.75 729.75 226.71
  Z"
/>
<path fill="#4ba7c3" d="
  M 1000.00 255.56
  L 1000.04 259.32
  Q 992.65 313.05 971.41 362.92
  Q 939.95 436.78 886.44 495.69
  Q 884.49 497.84 883.71 499.00
  Q 817.99 568.00 730.56 606.07
  Q 671.42 631.82 607.71 643.80
  A 1.53 1.52 2.5 0 0 606.54 644.86
  Q 602.95 656.76 597.74 667.78
  Q 593.25 677.28 587.78 685.09
  Q 567.06 714.67 532.37 727.72
  Q 520.41 732.21 507.99 735.23
  Q 490.15 739.56 471.97 742.12
  Q 471.88 742.13 470.03 742.23
  Q 468.36 742.32 466.66 743.27
  Q 459.74 743.04 452.73 744.75
  Q 451.16 745.14 451.90 743.56
  L 454.80 737.38
  Q 470.75 708.67 483.33 678.13
  Q 485.12 673.77 487.34 667.67
  Q 489.26 662.37 491.20 657.15
  Q 491.57 656.13 490.58 656.56
  Q 470.09 665.36 450.44 656.47
  Q 448.61 655.64 444.34 653.12
  Q 441.35 651.36 438.25 649.79
  A 0.36 0.36 -23.9 0 0 437.73 650.05
  Q 435.08 665.35 427.25 678.78
  Q 418.92 693.08 406.66 704.07
  Q 376.03 730.24 337.50 735.75
  Q 323.58 737.74 304.50 737.35
  Q 291.12 737.07 277.74 736.62
  Q 263.93 736.15 257.76 736.20
  Q 213.99 736.56 171.48 747.42
  Q 146.49 753.80 122.19 762.44
  Q 98.49 770.87 75.09 780.14
  Q 38.82 794.52 2.17 807.94
  Q -0.68 808.99 1.63 807.02
  Q 3.62 805.33 5.99 803.74
  Q 34.65 784.46 63.57 765.57
  Q 82.92 752.92 101.78 739.54
  Q 124.21 723.60 144.35 704.84
  Q 172.22 678.87 192.94 647.94
  Q 203.62 631.99 213.87 613.15
  Q 222.49 597.32 232.44 582.33
  Q 238.99 572.44 244.28 566.24
  Q 269.37 536.82 307.11 524.91
  Q 338.66 515.57 369.09 526.60
  A 0.69 0.69 -82.8 0 0 370.01 525.88
  Q 366.99 495.85 390.70 478.68
  Q 391.50 478.10 390.54 477.87
  Q 366.32 472.05 341.26 469.42
  Q 323.03 467.51 304.75 466.29
  L 296.33 465.26
  Q 295.53 465.16 296.05 464.57
  Q 301.74 458.17 306.56 451.22
  Q 319.92 434.36 335.12 419.13
  Q 362.34 391.85 399.25 384.25
  Q 430.40 377.84 462.32 385.94
  A 0.85 0.85 28.1 0 0 463.15 385.69
  Q 501.96 343.19 548.26 309.02
  Q 630.16 248.56 729.75 226.71
  Q 730.90 226.82 731.25 226.75
  Q 794.38 214.30 857.75 219.00
  Q 931.02 224.44 999.06 253.69
  Q 999.97 254.08 1000.00 255.56
  Z
  M 505.88 638.06
  Q 504.75 648.67 501.06 660.56
  Q 496.82 674.22 492.88 683.84
  Q 482.99 707.93 470.75 730.46
  Q 470.07 731.71 471.49 731.53
  Q 478.38 730.66 485.01 729.86
  Q 498.75 728.22 512.03 724.34
  Q 557.47 711.05 582.50 671.07
  Q 592.67 654.81 597.66 635.62
  A 1.65 1.63 -87.4 0 1 598.96 634.42
  Q 662.16 623.11 721.67 597.88
  Q 761.09 581.17 796.78 557.52
  Q 872.69 507.23 922.52 431.02
  Q 947.57 392.71 966.06 346.31
  Q 982.40 305.33 989.14 262.46
  A 1.43 1.43 -73.8 0 0 988.30 260.93
  Q 975.49 255.30 963.80 251.47
  Q 899.62 230.40 832.00 228.96
  Q 721.52 226.61 623.19 275.93
  Q 584.24 295.46 549.48 321.75
  Q 504.90 355.46 466.88 397.82
  A 1.46 1.46 29.4 0 1 465.37 398.24
  Q 443.96 391.75 423.25 392.37
  Q 391.72 393.33 364.93 409.68
  Q 347.24 420.47 333.49 435.98
  Q 324.83 445.75 317.27 455.47
  Q 316.53 456.43 317.74 456.50
  Q 348.64 458.32 379.03 464.08
  Q 397.37 467.56 414.45 475.07
  Q 415.37 475.47 414.54 476.04
  Q 407.71 480.66 400.77 485.28
  Q 391.83 491.23 388.77 494.96
  Q 383.76 501.08 381.92 509.23
  Q 379.48 520.02 381.00 531.00
  Q 381.98 538.05 383.50 545.02
  Q 383.83 546.50 382.55 545.68
  Q 362.88 532.99 339.99 531.75
  Q 330.11 531.22 320.10 533.05
  Q 303.88 536.02 288.19 544.44
  Q 267.73 555.41 254.31 571.06
  Q 241.30 586.24 229.44 607.94
  Q 225.22 615.65 206.12 648.65
  Q 197.05 664.31 184.75 680.75
  Q 159.43 714.59 123.59 735.65
  Q 123.19 735.89 123.17 736.11
  Q 123.15 736.46 124.22 736.15
  Q 137.59 732.37 150.99 728.75
  Q 153.42 728.10 151.57 729.81
  L 131.80 748.07
  Q 128.96 750.70 132.36 748.85
  Q 152.63 737.80 176.75 731.75
  Q 203.43 725.06 233.25 724.72
  Q 239.97 724.65 249.75 724.71
  Q 258.00 724.76 266.25 725.19
  Q 281.75 726.00 297.24 726.63
  Q 315.55 727.37 333.75 725.22
  Q 352.35 723.02 369.16 715.34
  Q 378.51 711.06 386.69 705.74
  Q 402.20 695.65 412.69 681.19
  Q 428.31 659.64 429.11 631.75
  Q 429.16 629.72 428.91 628.52
  Q 428.42 626.18 430.06 627.93
  Q 437.88 636.32 447.57 642.43
  Q 455.54 647.47 464.77 649.42
  Q 473.35 651.23 479.94 648.94
  Q 484.20 647.45 505.47 637.77
  Q 505.94 637.56 505.88 638.06
  Z"
/>
<path fill="#050601" d="
  M 505.47 637.77
  Q 484.20 647.45 479.94 648.94
  Q 473.35 651.23 464.77 649.42
  Q 455.54 647.47 447.57 642.43
  Q 437.88 636.32 430.06 627.93
  Q 428.42 626.18 428.91 628.52
  Q 429.16 629.72 429.11 631.75
  Q 428.31 659.64 412.69 681.19
  Q 402.20 695.65 386.69 705.74
  Q 378.51 711.06 369.16 715.34
  Q 352.35 723.02 333.75 725.22
  Q 315.55 727.37 297.24 726.63
  Q 281.75 726.00 266.25 725.19
  Q 258.00 724.76 249.75 724.71
  Q 239.97 724.65 233.25 724.72
  Q 203.43 725.06 176.75 731.75
  Q 152.63 737.80 132.36 748.85
  Q 128.96 750.70 131.80 748.07
  L 151.57 729.81
  Q 153.42 728.10 150.99 728.75
  Q 137.59 732.37 124.22 736.15
  Q 123.15 736.46 123.17 736.11
  Q 123.19 735.89 123.59 735.65
  Q 159.43 714.59 184.75 680.75
  Q 197.05 664.31 206.12 648.65
  Q 225.22 615.65 229.44 607.94
  Q 241.30 586.24 254.31 571.06
  Q 267.73 555.41 288.19 544.44
  Q 303.88 536.02 320.10 533.05
  Q 330.11 531.22 339.99 531.75
  Q 362.88 532.99 382.55 545.68
  Q 383.83 546.50 383.50 545.02
  Q 381.98 538.05 381.00 531.00
  Q 379.48 520.02 381.92 509.23
  Q 383.76 501.08 388.77 494.96
  Q 391.83 491.23 400.77 485.28
  Q 407.71 480.66 414.54 476.04
  Q 415.37 475.47 414.45 475.07
  Q 397.37 467.56 379.03 464.08
  Q 348.64 458.32 317.74 456.50
  Q 316.53 456.43 317.27 455.47
  Q 324.83 445.75 333.49 435.98
  Q 347.24 420.47 364.93 409.68
  Q 391.72 393.33 423.25 392.37
  Q 443.96 391.75 465.37 398.24
  A 1.46 1.46 29.4 0 0 466.88 397.82
  Q 504.90 355.46 549.48 321.75
  Q 584.24 295.46 623.19 275.93
  Q 721.52 226.61 832.00 228.96
  Q 899.62 230.40 963.80 251.47
  Q 975.49 255.30 988.30 260.93
  A 1.43 1.43 -73.8 0 1 989.14 262.46
  Q 982.40 305.33 966.06 346.31
  Q 947.57 392.71 922.52 431.02
  Q 872.69 507.23 796.78 557.52
  Q 761.09 581.17 721.67 597.88
  Q 662.16 623.11 598.96 634.42
  A 1.65 1.63 -87.4 0 0 597.66 635.62
  Q 592.67 654.81 582.50 671.07
  Q 557.47 711.05 512.03 724.34
  Q 498.75 728.22 485.01 729.86
  Q 478.38 730.66 471.49 731.53
  Q 470.07 731.71 470.75 730.46
  Q 482.99 707.93 492.88 683.84
  Q 496.82 674.22 501.06 660.56
  Q 504.75 648.67 505.88 638.06
  Q 505.94 637.56 505.47 637.77
  Z
  M 817.50 273.04
  Q 838.87 301.33 855.00 329.25
  Q 880.15 372.80 895.88 422.46
  Q 898.01 429.19 899.76 434.95
  Q 900.28 436.64 901.29 435.19
  Q 942.24 376.94 962.98 309.24
  Q 968.49 291.27 971.71 272.75
  L 972.14 271.31
  A 0.64 0.51 19.1 0 0 971.72 270.64
  Q 925.24 253.43 876.00 247.46
  Q 872.55 246.59 869.00 246.79
  Q 849.20 244.30 829.25 244.32
  Q 811.99 244.34 794.74 245.00
  Q 793.74 245.04 794.39 245.81
  L 817.50 273.04
  Z
  M 442.42 465.20
  Q 433.64 491.73 442.99 517.07
  A 0.89 0.89 -30.2 0 0 444.40 517.44
  Q 467.84 498.02 496.29 496.25
  Q 524.07 495.35 549.98 506.37
  A 0.65 0.65 16.3 0 1 550.37 507.08
  Q 547.71 521.96 542.76 535.50
  Q 529.45 571.93 493.71 586.75
  L 483.80 589.81
  A 0.35 0.35 -27.0 0 0 483.62 590.35
  Q 488.65 597.13 495.00 602.71
  Q 507.23 613.81 523.00 618.79
  Q 538.04 623.43 553.63 623.37
  Q 560.64 623.34 570.37 622.44
  Q 578.06 621.73 587.00 620.25
  Q 634.81 612.31 678.33 597.62
  Q 723.00 582.55 763.90 559.12
  Q 836.04 517.79 887.73 452.64
  A 1.43 1.41 -33.6 0 0 887.99 451.40
  Q 879.44 419.01 866.79 389.00
  Q 833.74 309.55 774.04 247.67
  A 1.04 1.01 -25.0 0 0 773.18 247.37
  Q 693.94 256.58 623.39 293.59
  Q 582.41 315.10 545.19 345.19
  Q 518.15 367.04 495.19 390.80
  Q 486.03 400.28 481.41 405.31
  Q 469.22 418.57 458.82 433.32
  Q 448.39 448.09 442.42 465.20
  Z
  M 348.67 443.81
  Q 364.56 446.17 380.30 449.27
  Q 385.35 450.27 398.50 453.75
  Q 413.18 457.64 424.31 463.27
  A 0.46 0.45 25.3 0 0 424.94 463.05
  Q 433.50 443.22 446.19 425.79
  Q 449.51 421.23 451.04 418.96
  Q 453.37 415.48 455.66 411.98
  A 0.37 0.37 24.7 0 0 455.45 411.42
  Q 435.13 405.57 416.50 408.00
  Q 376.06 413.27 348.32 442.81
  Q 347.53 443.64 348.67 443.81
  Z
  M 405.21 500.63
  Q 397.58 505.74 396.25 515.00
  Q 394.79 525.16 397.37 536.93
  Q 401.43 555.51 410.07 572.45
  Q 411.04 574.35 411.89 572.40
  Q 414.22 567.12 415.66 561.28
  Q 422.02 545.48 431.55 532.28
  A 1.26 1.24 -40.0 0 0 431.67 531.02
  Q 422.64 512.16 420.49 491.31
  Q 420.44 490.81 420.03 491.11
  Q 413.25 496.08 405.21 500.63
  Z
  M 442.96 543.75
  Q 432.60 557.65 427.41 574.56
  A 0.49 0.48 16.3 0 0 427.75 575.18
  Q 447.78 580.55 468.00 577.25
  Q 496.06 572.67 514.19 553.44
  Q 519.51 547.79 523.85 539.73
  Q 529.22 529.04 532.23 517.15
  A 0.53 0.53 15.1 0 0 531.86 516.51
  Q 519.50 512.83 507.50 512.45
  Q 466.53 511.17 442.96 543.75
  Z
  M 330.50 547.46
  Q 327.66 547.29 325.00 548.21
  Q 317.80 549.04 312.00 551.00
  Q 288.43 558.96 270.87 576.24
  Q 264.81 582.21 258.11 591.60
  Q 247.61 606.31 239.04 622.27
  Q 222.64 652.85 203.46 681.75
  L 190.96 698.25
  L 175.80 714.83
  Q 174.38 716.38 176.44 715.96
  Q 199.53 711.27 223.25 709.75
  Q 234.07 709.06 273.51 709.76
  Q 278.41 711.08 286.50 711.25
  Q 297.75 711.49 309.00 711.70
  Q 325.29 712.00 341.31 709.06
  Q 361.69 705.33 380.21 691.00
  Q 400.64 675.71 409.42 652.38
  Q 412.19 645.02 413.12 636.70
  Q 414.03 628.64 413.77 620.50
  A 1.77 1.36 31.7 0 0 413.43 619.61
  Q 411.86 617.49 413.02 614.95
  A 1.70 1.35 -42.3 0 0 413.17 614.01
  Q 409.10 590.52 392.84 573.16
  Q 373.95 552.97 346.75 547.50
  Q 342.53 546.65 330.50 547.46
  Z
  M 465.36 634.30
  Q 469.96 635.88 474.06 634.81
  Q 478.78 633.58 483.75 630.54
  L 494.69 625.56
  A 0.68 0.67 51.5 0 0 494.81 624.41
  Q 483.38 615.40 474.23 604.64
  L 465.99 593.45
  A 0.99 0.88 -17.4 0 0 465.19 593.09
  L 456.00 593.54
  Q 438.17 593.08 420.73 589.25
  Q 419.70 589.02 420.21 589.95
  Q 425.56 599.76 432.80 608.34
  Q 440.31 617.25 446.66 622.72
  Q 455.01 629.92 465.36 634.30
  Z
  M 537.56 637.69
  Q 532.43 637.60 521.99 635.83
  A 0.50 0.49 -80.8 0 0 521.42 636.25
  Q 516.39 668.08 504.31 695.56
  Q 499.32 706.92 497.60 711.60
  Q 497.43 712.06 497.93 711.96
  Q 530.35 705.47 553.69 682.94
  Q 573.50 663.80 581.54 636.79
  A 0.37 0.36 8.0 0 0 581.18 636.32
  Q 571.07 636.59 561.00 637.50
  Q 555.63 637.98 537.56 637.69
  Z"
/>
<path fill="#2b98a5" d="
  M 869.00 246.79
  L 876.00 247.46
  Q 925.24 253.43 971.72 270.64
  A 0.64 0.51 19.1 0 1 972.14 271.31
  L 971.71 272.75
  Q 968.08 277.86 966.44 280.69
  Q 956.41 297.95 940.12 308.50
  Q 931.16 314.31 922.07 316.93
  Q 907.12 321.23 891.23 317.82
  Q 876.85 314.74 864.56 307.94
  Q 840.04 294.35 819.81 273.94
  Q 818.54 272.65 817.50 273.04
  L 794.39 245.81
  Q 793.74 245.04 794.74 245.00
  Q 811.99 244.34 829.25 244.32
  Q 849.20 244.30 869.00 246.79
  Z
  M 880.7533 259.9124
  A 35.07 6.78 6.8 0 0 846.7328 249.0277
  A 35.07 6.78 6.8 0 0 811.1067 251.6076
  A 35.07 6.78 6.8 0 0 845.1272 262.4923
  A 35.07 6.78 6.8 0 0 880.7533 259.9124
  Z
  M 890.1349 274.1693
  A 21.25 3.96 6.7 0 0 869.4920 267.7570
  A 21.25 3.96 6.7 0 0 847.9251 269.2107
  A 21.25 3.96 6.7 0 0 868.5680 275.6230
  A 21.25 3.96 6.7 0 0 890.1349 274.1693
  Z"
/>
<path fill="#48474a" d="
  M 869.00 246.79
  Q 872.55 246.59 876.00 247.46
  L 869.00 246.79
  Z"
/>
<path fill="#ffffff" d="
  M 866.79 389.00
  Q 863.12 390.13 862.31 392.06
  Q 861.10 394.95 859.94 397.86
  Q 847.21 429.84 826.99 457.47
  Q 821.02 465.64 814.52 473.11
  Q 762.43 533.02 684.10 548.50
  Q 674.04 550.48 664.32 551.46
  Q 605.91 557.29 552.10 533.02
  Q 546.57 530.53 545.25 536.50
  Q 544.30 540.75 542.38 544.58
  Q 541.65 546.03 538.19 551.97
  Q 523.38 577.37 495.71 588.56
  A 1.01 0.85 -36.8 0 1 494.82 588.51
  Q 493.92 587.91 493.71 586.75
  Q 529.45 571.93 542.76 535.50
  Q 547.71 521.96 550.37 507.08
  A 0.65 0.65 16.3 0 0 549.98 506.37
  Q 524.07 495.35 496.29 496.25
  Q 496.27 491.96 492.94 487.81
  Q 473.97 464.20 466.10 433.50
  A 3.61 3.61 7.6 0 0 464.37 431.24
  Q 462.89 430.41 462.71 432.27
  Q 462.67 432.66 462.45 432.97
  Q 452.95 447.03 447.19 460.69
  Q 446.57 462.15 442.42 465.20
  Q 448.39 448.09 458.82 433.32
  Q 469.22 418.57 481.41 405.31
  Q 486.03 400.28 495.19 390.80
  Q 518.15 367.04 545.19 345.19
  Q 582.41 315.10 623.39 293.59
  Q 693.94 256.58 773.18 247.37
  A 1.04 1.01 -25.0 0 1 774.04 247.67
  Q 833.74 309.55 866.79 389.00
  Z
  M 634.79 494.00
  Q 634.23 496.00 633.42 496.34
  A 1.08 1.07 -35.3 0 0 633.11 498.12
  Q 656.18 519.23 685.01 520.97
  Q 694.87 521.56 704.91 519.72
  Q 729.89 515.12 747.75 497.36
  Q 754.89 490.26 760.12 481.71
  Q 770.43 464.87 772.00 445.25
  Q 774.61 412.77 753.76 387.45
  A 0.77 0.73 60.8 0 0 752.96 387.20
  Q 751.32 387.76 750.04 389.00
  Q 737.05 368.85 715.75 359.50
  Q 695.08 350.42 672.87 353.42
  Q 662.90 354.77 653.61 358.55
  Q 635.58 365.89 623.31 380.56
  Q 609.53 397.05 605.76 418.25
  Q 602.72 435.30 607.29 451.99
  Q 614.26 477.47 634.79 494.00
  Z"
/>
<ellipse fill="#4ba7c3" cx="0.00" cy="0.00" transform="translate(845.93,255.76) rotate(6.8)" rx="35.07" ry="6.78"/>
<ellipse fill="#4ba7c3" cx="0.00" cy="0.00" transform="translate(869.03,271.69) rotate(6.7)" rx="21.25" ry="3.96"/>
<path fill="#186d77" d="
  M 971.71 272.75
  Q 968.49 291.27 962.98 309.24
  Q 942.24 376.94 901.29 435.19
  Q 900.28 436.64 899.76 434.95
  Q 898.01 429.19 895.88 422.46
  Q 880.15 372.80 855.00 329.25
  Q 838.87 301.33 817.50 273.04
  Q 818.54 272.65 819.81 273.94
  Q 840.04 294.35 864.56 307.94
  Q 876.85 314.74 891.23 317.82
  Q 907.12 321.23 922.07 316.93
  Q 931.16 314.31 940.12 308.50
  Q 956.41 297.95 966.44 280.69
  Q 968.08 277.86 971.71 272.75
  Z"
/>
<path fill="#050601" d="
  M 750.04 389.00
  Q 761.53 407.29 762.50 426.75
  Q 764.14 459.61 743.04 483.67
  Q 736.44 491.19 728.12 496.90
  Q 698.90 516.92 663.00 508.00
  Q 648.52 504.40 634.79 494.00
  Q 614.26 477.47 607.29 451.99
  Q 602.72 435.30 605.76 418.25
  Q 609.53 397.05 623.31 380.56
  Q 635.58 365.89 653.61 358.55
  Q 662.90 354.77 672.87 353.42
  Q 695.08 350.42 715.75 359.50
  Q 737.05 368.85 750.04 389.00
  Z
  M 623.89 452.55
  Q 636.85 485.84 670.81 493.69
  Q 688.43 497.76 706.50 490.46
  Q 721.33 484.55 731.31 473.06
  Q 750.28 451.23 746.25 421.75
  Q 744.07 405.80 733.11 393.23
  Q 732.20 390.63 730.16 389.10
  Q 710.18 368.65 682.97 368.79
  Q 672.64 368.84 663.33 372.04
  Q 648.51 377.12 637.56 388.81
  Q 622.50 404.90 620.75 427.25
  Q 619.78 439.55 623.89 452.55
  Z"
/>
<path fill="#4ba7c3" d="
  M 730.16 389.10
  Q 725.12 416.66 705.44 434.69
  Q 673.25 464.16 628.75 455.50
  Q 626.85 455.13 623.89 452.55
  Q 619.78 439.55 620.75 427.25
  Q 622.50 404.90 637.56 388.81
  Q 648.51 377.12 663.33 372.04
  Q 672.64 368.84 682.97 368.79
  Q 710.18 368.65 730.16 389.10
  Z"
/>
<path fill="#efefef" d="
  M 634.79 494.00
  Q 648.52 504.40 663.00 508.00
  Q 698.90 516.92 728.12 496.90
  Q 736.44 491.19 743.04 483.67
  Q 764.14 459.61 762.50 426.75
  Q 761.53 407.29 750.04 389.00
  Q 751.32 387.76 752.96 387.20
  A 0.77 0.73 60.8 0 1 753.76 387.45
  Q 774.61 412.77 772.00 445.25
  Q 770.43 464.87 760.12 481.71
  Q 754.89 490.26 747.75 497.36
  Q 729.89 515.12 704.91 519.72
  Q 694.87 521.56 685.01 520.97
  Q 656.18 519.23 633.11 498.12
  A 1.08 1.07 -35.3 0 1 633.42 496.34
  Q 634.23 496.00 634.79 494.00
  Z"
/>
<path fill="#186d77" d="
  M 730.16 389.10
  Q 732.20 390.63 733.11 393.23
  Q 748.70 414.48 745.32 439.52
  Q 743.96 449.56 739.47 458.54
  Q 732.54 472.39 720.05 481.96
  Q 718.06 483.49 713.28 486.17
  Q 709.78 488.13 706.50 490.46
  Q 688.43 497.76 670.81 493.69
  Q 636.85 485.84 623.89 452.55
  Q 626.85 455.13 628.75 455.50
  Q 673.25 464.16 705.44 434.69
  Q 725.12 416.66 730.16 389.10
  Z"
/>
<path fill="#efefef" d="
  M 866.79 389.00
  Q 879.44 419.01 887.99 451.40
  A 1.43 1.41 -33.6 0 1 887.73 452.64
  Q 836.04 517.79 763.90 559.12
  Q 723.00 582.55 678.33 597.62
  Q 634.81 612.31 587.00 620.25
  Q 578.06 621.73 570.37 622.44
  Q 560.64 623.34 553.63 623.37
  Q 538.04 623.43 523.00 618.79
  Q 523.90 617.47 523.30 616.13
  A 1.21 0.98 0.4 0 0 522.58 615.54
  Q 509.91 611.69 499.63 603.40
  Q 499.56 603.35 498.57 602.40
  Q 496.80 600.70 495.00 602.71
  Q 488.65 597.13 483.62 590.35
  A 0.35 0.35 -27.0 0 1 483.80 589.81
  L 493.71 586.75
  Q 493.92 587.91 494.82 588.51
  A 1.01 0.85 -36.8 0 0 495.71 588.56
  Q 523.38 577.37 538.19 551.97
  Q 541.65 546.03 542.38 544.58
  Q 544.30 540.75 545.25 536.50
  Q 546.57 530.53 552.10 533.02
  Q 605.91 557.29 664.32 551.46
  Q 674.04 550.48 684.10 548.50
  Q 762.43 533.02 814.52 473.11
  Q 821.02 465.64 826.99 457.47
  Q 847.21 429.84 859.94 397.86
  Q 861.10 394.95 862.31 392.06
  Q 863.12 390.13 866.79 389.00
  Z"
/>
<path fill="#48474a" d="
  M 733.11 393.23
  Q 744.07 405.80 746.25 421.75
  Q 750.28 451.23 731.31 473.06
  Q 721.33 484.55 706.50 490.46
  Q 709.78 488.13 713.28 486.17
  Q 718.06 483.49 720.05 481.96
  Q 732.54 472.39 739.47 458.54
  Q 743.96 449.56 745.32 439.52
  Q 748.70 414.48 733.11 393.23
  Z"
/>
<path fill="#186d77" d="
  M 348.67 443.81
  Q 347.53 443.64 348.32 442.81
  Q 376.06 413.27 416.50 408.00
  Q 435.13 405.57 455.45 411.42
  A 0.37 0.37 24.7 0 1 455.66 411.98
  Q 453.37 415.48 451.04 418.96
  Q 449.51 421.23 446.19 425.79
  Q 433.50 443.22 424.94 463.05
  A 0.46 0.45 25.3 0 1 424.31 463.27
  Q 413.18 457.64 398.50 453.75
  Q 385.35 450.27 380.30 449.27
  Q 364.56 446.17 348.67 443.81
  Z
  M 399.43 418.15
  Q 403.27 418.83 407.17 419.12
  Q 407.29 419.12 411.80 419.67
  Q 415.73 420.14 420.75 419.25
  Q 432.09 417.25 438.97 414.85
  A 1.58 1.14 -0.4 0 0 439.73 414.29
  Q 440.59 412.95 439.53 411.90
  Q 438.41 410.80 436.85 410.67
  Q 421.33 409.42 408.03 412.50
  Q 407.88 412.54 403.94 413.33
  Q 400.75 413.98 399.00 415.25
  Q 397.50 416.34 398.60 417.70
  A 1.53 1.14 -8.3 0 0 399.43 418.15
  Z
  M 407.8862 423.1164
  A 15.34 2.79 -4.8 0 0 392.3665 421.6198
  A 15.34 2.79 -4.8 0 0 377.3138 425.6836
  A 15.34 2.79 -4.8 0 0 392.8335 427.1802
  A 15.34 2.79 -4.8 0 0 407.8862 423.1164
  Z"
/>
<path fill="#4ba7c3" d="
  M 398.60 417.70
  Q 397.50 416.34 399.00 415.25
  Q 400.75 413.98 403.94 413.33
  Q 407.88 412.54 408.03 412.50
  Q 421.33 409.42 436.85 410.67
  Q 438.41 410.80 439.53 411.90
  Q 440.59 412.95 439.73 414.29
  A 1.58 1.14 -0.4 0 1 438.97 414.85
  Q 432.09 417.25 420.75 419.25
  Q 415.73 420.14 411.80 419.67
  Q 407.29 419.12 407.17 419.12
  Q 403.27 418.83 399.43 418.15
  A 1.53 1.14 -8.3 0 1 398.60 417.70
  Z"
/>
<ellipse fill="#4ba7c3" cx="0.00" cy="0.00" transform="translate(392.60,424.40) rotate(-4.8)" rx="15.34" ry="2.79"/>
<path fill="#efefef" d="
  M 496.29 496.25
  Q 467.84 498.02 444.40 517.44
  A 0.89 0.89 -30.2 0 1 442.99 517.07
  Q 433.64 491.73 442.42 465.20
  Q 446.57 462.15 447.19 460.69
  Q 452.95 447.03 462.45 432.97
  Q 462.67 432.66 462.71 432.27
  Q 462.89 430.41 464.37 431.24
  A 3.61 3.61 7.6 0 1 466.10 433.50
  Q 473.97 464.20 492.94 487.81
  Q 496.27 491.96 496.29 496.25
  Z"
/>
<path fill="#050800" d="
  M 304.75 466.29
  Q 323.03 467.51 341.26 469.42
  Q 366.32 472.05 390.54 477.87
  Q 391.50 478.10 390.70 478.68
  Q 366.99 495.85 370.01 525.88
  A 0.69 0.69 -82.8 0 1 369.09 526.60
  Q 338.66 515.57 307.11 524.91
  Q 307.20 523.91 307.00 522.50
  Q 303.02 494.93 304.75 466.29
  Z"
/>
<path fill="#b45396" d="
  M 415.66 561.28
  Q 393.56 534.07 405.21 500.63
  Q 413.25 496.08 420.03 491.11
  Q 420.44 490.81 420.49 491.31
  Q 422.64 512.16 431.67 531.02
  A 1.26 1.24 -40.0 0 1 431.55 532.28
  Q 422.02 545.48 415.66 561.28
  Z"
/>
<path fill="#050800" d="
  M 883.71 499.00
  Q 883.86 501.94 883.50 506.00
  Q 876.32 586.10 830.82 650.85
  Q 825.07 659.03 818.69 666.75
  Q 771.50 723.89 702.81 751.81
  Q 652.69 772.19 598.00 773.01
  Q 588.00 773.16 578.01 772.56
  Q 519.53 769.01 466.66 743.27
  Q 468.36 742.32 470.03 742.23
  Q 471.88 742.13 471.97 742.12
  Q 490.15 739.56 507.99 735.23
  Q 520.41 732.21 532.37 727.72
  Q 567.06 714.67 587.78 685.09
  Q 593.25 677.28 597.74 667.78
  Q 602.95 656.76 606.54 644.86
  A 1.53 1.52 2.5 0 1 607.71 643.80
  Q 671.42 631.82 730.56 606.07
  Q 817.99 568.00 883.71 499.00
  Z"
/>
<path fill="#7d3e75" d="
  M 405.21 500.63
  Q 393.56 534.07 415.66 561.28
  Q 414.22 567.12 411.89 572.40
  Q 411.04 574.35 410.07 572.45
  Q 401.43 555.51 397.37 536.93
  Q 394.79 525.16 396.25 515.00
  Q 397.58 505.74 405.21 500.63
  Z"
/>
<path fill="#4ba7c3" d="
  M 523.85 539.73
  Q 484.54 562.21 442.96 543.75
  Q 466.53 511.17 507.50 512.45
  Q 519.50 512.83 531.86 516.51
  A 0.53 0.53 15.1 0 1 532.23 517.15
  Q 529.22 529.04 523.85 539.73
  Z"
/>
<path fill="#186d77" d="
  M 523.85 539.73
  Q 519.51 547.79 514.19 553.44
  Q 496.06 572.67 468.00 577.25
  Q 447.78 580.55 427.75 575.18
  A 0.49 0.48 16.3 0 1 427.41 574.56
  Q 432.60 557.65 442.96 543.75
  Q 484.54 562.21 523.85 539.73
  Z"
/>
<path fill="#7d3e75" d="
  M 380.21 691.00
  Q 378.93 690.89 377.44 691.94
  Q 364.10 701.30 348.15 706.03
  Q 340.04 708.44 328.47 709.34
  Q 301.04 711.49 273.51 709.76
  Q 234.07 709.06 223.25 709.75
  Q 199.53 711.27 176.44 715.96
  Q 174.38 716.38 175.80 714.83
  L 190.96 698.25
  Q 191.14 700.04 192.49 699.77
  Q 193.95 699.48 194.07 699.48
  Q 214.13 698.90 228.00 699.50
  Q 258.17 700.81 280.38 700.98
  Q 288.25 701.03 294.10 700.61
  Q 301.98 700.04 307.75 699.00
  Q 331.78 694.65 351.00 679.58
  Q 359.20 673.16 365.26 665.66
  Q 380.47 646.87 382.50 623.00
  Q 385.00 593.52 366.18 569.07
  Q 359.77 560.75 351.58 554.23
  Q 351.47 554.14 348.57 551.61
  Q 345.59 549.00 341.79 548.00
  Q 339.92 547.51 336.16 547.51
  Q 333.33 547.51 330.50 547.46
  Q 342.53 546.65 346.75 547.50
  Q 373.95 552.97 392.84 573.16
  Q 409.10 590.52 413.17 614.01
  A 1.70 1.35 -42.3 0 1 413.02 614.95
  Q 411.86 617.49 413.43 619.61
  A 1.77 1.36 31.7 0 1 413.77 620.50
  Q 414.03 628.64 413.12 636.70
  Q 412.19 645.02 409.42 652.38
  Q 400.64 675.71 380.21 691.00
  Z"
/>
<path fill="#9f4c92" d="
  M 330.50 547.46
  Q 333.33 547.51 336.16 547.51
  Q 339.92 547.51 341.79 548.00
  Q 345.59 549.00 348.57 551.61
  Q 351.47 554.14 351.58 554.23
  Q 359.77 560.75 366.18 569.07
  Q 385.00 593.52 382.50 623.00
  Q 380.47 646.87 365.26 665.66
  Q 359.20 673.16 351.00 679.58
  Q 331.78 694.65 307.75 699.00
  Q 301.98 700.04 294.10 700.61
  Q 288.25 701.03 280.38 700.98
  Q 258.17 700.81 228.00 699.50
  Q 214.13 698.90 194.07 699.48
  Q 193.95 699.48 192.49 699.77
  Q 191.14 700.04 190.96 698.25
  L 203.46 681.75
  Q 203.80 683.34 205.04 683.19
  Q 206.35 683.04 206.48 683.05
  Q 235.50 685.00 258.50 683.75
  Q 293.81 681.84 320.42 657.41
  Q 342.48 637.16 345.75 609.00
  Q 349.29 578.47 330.25 552.75
  Q 328.90 550.92 328.13 549.62
  Q 327.55 548.63 326.87 548.38
  Q 326.01 548.05 325.00 548.21
  Q 327.66 547.29 330.50 547.46
  Z"
/>
<path fill="#b45396" d="
  M 325.00 548.21
  Q 326.01 548.05 326.87 548.38
  Q 327.55 548.63 328.13 549.62
  Q 328.90 550.92 330.25 552.75
  Q 349.29 578.47 345.75 609.00
  Q 342.48 637.16 320.42 657.41
  Q 293.81 681.84 258.50 683.75
  Q 235.50 685.00 206.48 683.05
  Q 206.35 683.04 205.04 683.19
  Q 203.80 683.34 203.46 681.75
  Q 222.64 652.85 239.04 622.27
  Q 247.61 606.31 258.11 591.60
  Q 264.81 582.21 270.87 576.24
  Q 288.43 558.96 312.00 551.00
  Q 317.80 549.04 325.00 548.21
  Z"
/>
<path fill="#7d3e75" d="
  M 456.00 593.54
  Q 453.07 593.57 454.48 595.32
  Q 454.91 595.85 455.78 596.40
  Q 464.35 601.92 474.23 604.64
  Q 483.38 615.40 494.81 624.41
  A 0.68 0.67 51.5 0 1 494.69 625.56
  L 483.75 630.54
  Q 478.89 632.32 473.96 633.89
  Q 472.30 634.41 469.96 634.19
  Q 467.74 633.99 465.36 634.30
  Q 455.01 629.92 446.66 622.72
  Q 440.31 617.25 432.80 608.34
  Q 425.56 599.76 420.21 589.95
  Q 419.70 589.02 420.73 589.25
  Q 438.17 593.08 456.00 593.54
  Z"
/>
<path fill="#b45396" d="
  M 474.23 604.64
  Q 464.35 601.92 455.78 596.40
  Q 454.91 595.85 454.48 595.32
  Q 453.07 593.57 456.00 593.54
  L 465.19 593.09
  A 0.99 0.88 -17.4 0 1 465.99 593.45
  L 474.23 604.64
  Z"
/>
<path fill="#ffffff" d="
  M 523.00 618.79
  Q 507.23 613.81 495.00 602.71
  Q 496.80 600.70 498.57 602.40
  Q 499.56 603.35 499.63 603.40
  Q 509.91 611.69 522.58 615.54
  A 1.21 0.98 0.4 0 1 523.30 616.13
  Q 523.90 617.47 523.00 618.79
  Z"
/>
<path fill="#48474a" d="
  M 483.75 630.54
  Q 478.78 633.58 474.06 634.81
  Q 469.96 635.88 465.36 634.30
  Q 467.74 633.99 469.96 634.19
  Q 472.30 634.41 473.96 633.89
  Q 478.89 632.32 483.75 630.54
  Z"
/>
<path fill="#186d77" d="
  M 537.56 637.69
  Q 555.63 637.98 561.00 637.50
  Q 571.07 636.59 581.18 636.32
  A 0.37 0.36 8.0 0 1 581.54 636.79
  Q 573.50 663.80 553.69 682.94
  Q 530.35 705.47 497.93 711.96
  Q 497.43 712.06 497.60 711.60
  Q 499.32 706.92 504.31 695.56
  Q 516.39 668.08 521.42 636.25
  A 0.50 0.49 -80.8 0 1 521.99 635.83
  Q 532.43 637.60 537.56 637.69
  Z"
/>
<path fill="#050800" d="
  M 454.80 737.38
  Q 429.40 723.10 406.66 704.07
  Q 418.92 693.08 427.25 678.78
  Q 435.08 665.35 437.73 650.05
  A 0.36 0.36 64.4 0 1 438.25 649.79
  Q 441.35 651.36 444.34 653.12
  Q 448.61 655.64 450.44 656.47
  Q 470.09 665.36 490.58 656.56
  Q 491.57 656.13 491.20 657.15
  Q 489.26 662.37 487.34 667.67
  Q 485.12 673.77 483.33 678.13
  Q 470.75 708.67 454.80 737.38
  Z"
/>
<path fill="#48474a" d="
  M 380.21 691.00
  Q 361.69 705.33 341.31 709.06
  Q 325.29 712.00 309.00 711.70
  Q 297.75 711.49 286.50 711.25
  Q 278.41 711.08 273.51 709.76
  Q 301.04 711.49 328.47 709.34
  Q 340.04 708.44 348.15 706.03
  Q 364.10 701.30 377.44 691.94
  Q 378.93 690.89 380.21 691.00
  Z"
/>
</svg>
